<svg version="1.1" xmlns="http://www.w3.org/2000/svg" width="6528" height="1024" viewBox="0 0 6528 1024">
<g id="icomoon-ignore">
</g>
<path fill="#3470ff" d="M6468.544 489.298c-43.712 0-83.654 2.522-119.802 7.567-36.154 5.044-75.245 15.133-117.28 30.266v481.734h-219.43v-716.296h162.682l32.787 84.493c43.718-35.31 86.592-60.532 128.627-75.665 42.042-15.133 86.208-22.7 132.416-22.7v210.602z"></path>
<path fill="#3470ff" d="M5907.104 1001.299c-26.906 5.888-50.867 10.093-71.885 12.614-20.173 2.522-44.134 3.782-71.878 3.782-80.71 0-133.677-26.061-158.899-78.189-35.309 26.061-70.618 45.818-105.933 59.27-35.309 13.453-73.984 20.179-116.019 20.179-37.83 0-71.878-7.987-102.144-23.962-30.272-15.974-53.811-37.414-70.624-64.314-16.813-26.906-25.222-56.333-25.222-88.275 0-53.811 13.453-96.262 40.358-127.373 27.744-31.949 64.736-57.171 110.97-75.665 46.24-19.336 116.442-42.456 210.605-69.359l37.83-11.35v-5.044c0-77.347-35.309-116.020-105.926-116.020-34.47 0-71.462 7.567-110.976 22.7s-84.915 39.514-136.198 73.143l-41.619-151.331c57.171-32.788 115.181-58.43 174.029-76.926 59.693-18.496 122.752-27.744 189.165-27.744 80.71 0 142.502 21.859 185.382 65.576 43.718 43.718 65.574 118.542 65.574 224.474v239.604c0 18.496 3.782 31.949 11.347 40.358 7.571 7.565 19.763 11.347 36.576 11.347 15.974 0 31.949-2.099 47.923-6.304l7.565 148.806zM5403.93 813.402c0 16.813 4.205 29.005 12.608 36.57 9.248 7.565 23.546 11.347 42.88 11.347 35.309 0 76.928-15.13 124.845-45.395v-133.677l-18.912 6.304c-63.059 22.701-105.933 42.88-128.634 60.531-21.856 16.819-32.787 38.253-32.787 64.32z"></path>
<path fill="#3470ff" d="M4811.661 1024c-104.25 0-192.525-20.179-264.826-60.531-72.307-41.197-126.528-95.424-162.682-162.682-35.309-68.102-52.966-142.080-52.966-221.952 0-79.028 18.496-152.171 55.488-219.428 37.83-67.258 93.741-121.064 167.725-161.42s163.098-60.532 267.347-60.532c97.53 0 183.283 18.916 257.267 56.749l-45.402 158.897c-31.104-15.974-63.475-28.584-97.101-37.832-33.632-10.089-71.885-15.133-114.765-15.133-54.643 0-102.144 12.611-142.502 37.832-39.514 24.381-69.779 58.010-90.797 100.887-20.179 42.036-30.266 89.117-30.266 141.242 0 82.393 21.862 150.067 65.574 203.033 43.718 52.128 106.355 78.189 187.904 78.189 69.779 0 145.024-17.235 225.734-51.706l42.88 155.117c-34.47 17.651-75.667 31.949-123.59 42.874-47.917 10.931-96.262 16.397-145.024 16.397z"></path>
<path fill="#101828" d="M3954.15 0h219.424v1008.87h-219.424v-1008.87z"></path>
<path fill="#101828" d="M3849.21 1001.299c-26.899 5.888-50.861 10.093-71.878 12.614-20.179 2.522-44.141 3.782-71.885 3.782-80.71 0-133.677-26.061-158.893-78.189-35.315 26.061-70.624 45.818-105.933 59.27s-73.984 20.179-116.019 20.179c-37.837 0-71.885-7.987-102.15-23.962s-53.805-37.414-70.618-64.314c-16.819-26.906-25.222-56.333-25.222-88.275 0-53.811 13.453-96.262 40.352-127.373 27.744-31.949 64.736-57.171 110.976-75.665 46.24-19.336 116.442-42.456 210.605-69.359l37.83-11.35v-5.044c0-77.347-35.309-116.020-105.933-116.020-34.47 0-71.462 7.567-110.976 22.7s-84.909 39.514-136.198 73.143l-41.613-151.331c57.171-32.788 115.181-58.43 174.029-76.926 59.693-18.496 122.746-27.744 189.165-27.744 80.71 0 142.502 21.859 185.376 65.576 43.718 43.718 65.581 118.542 65.581 224.474v239.604c0 18.496 3.782 31.949 11.347 40.358 7.565 7.565 19.757 11.347 36.57 11.347 15.974 0 31.949-2.099 47.923-6.304l7.565 148.806zM3346.035 813.402c0 16.813 4.205 29.005 12.614 36.57 9.248 7.565 23.539 11.347 42.874 11.347 35.315 0 76.928-15.13 124.851-45.395v-133.677l-18.918 6.304c-63.053 22.701-105.933 42.88-128.627 60.531-21.862 16.819-32.794 38.253-32.794 64.32z"></path>
<path fill="#101828" d="M3047.949 962.208c-25.222 17.658-55.488 31.533-90.797 41.619-34.47 9.248-68.102 13.869-100.89 13.869-89.114 0-155.533-19.334-199.251-58.010-43.718-39.514-65.574-95.84-65.574-168.986v-343.013h-107.194v-92.060l134.938-54.227 60.531-192.947h131.149v184.119h201.779v155.114h-201.779v290.047c0 44.563 7.149 76.090 21.44 94.586s35.731 27.744 64.314 27.744c36.992 0 76.090-10.931 117.286-32.787l34.048 134.931z"></path>
<path fill="#101828" d="M2124.173 277.437c93.318 0 157.632 24.801 192.941 74.404 36.154 49.603 54.227 121.064 54.227 214.385v442.644h-219.424v-414.9c0-58.851-7.149-99.626-21.44-122.325-13.453-22.7-39.936-34.049-79.45-34.049-42.88 0-86.592 14.292-131.155 42.877v528.398h-219.424v-716.3h162.675l22.701 59.27c82.394-49.603 161.843-74.404 238.349-74.404z"></path>
<path fill="#101828" d="M1089.811 691.072c4.205 59.693 18.918 103.834 44.141 132.416s63.891 42.874 116.019 42.874c38.675 0 74.406-6.72 107.194-20.173 33.626-14.291 71.878-35.309 114.758-63.053l59.27 138.714c-44.557 36.154-88.698 62.214-132.416 78.189s-93.741 23.962-150.067 23.962c-83.232 0-153.011-15.974-209.338-47.923-56.333-32.787-98.368-76.922-126.112-132.41-26.906-56.333-40.352-120.224-40.352-191.686 0-113.498 31.942-204.297 95.84-272.396s157.216-102.148 279.962-102.148c97.523 0 171.507 26.483 221.952 79.448 51.283 52.125 77.344 126.529 78.189 223.212 0 37.833-5.466 74.827-16.397 110.974h-442.643zM1335.725 548.571c0.838-5.044 1.261-11.77 1.261-20.177-0.838-34.47-10.086-60.532-27.744-78.188-17.658-18.496-42.035-27.743-73.146-27.743-73.978 0-120.218 42.036-138.714 126.108h238.342z"></path>
<path fill="#101828" d="M348.060 693.6h-121.064v315.27h-226.995v-857.54h343.016c122.746 0 212.283 21.018 268.611 63.054 56.328 41.196 84.495 106.351 84.495 195.468 0 116.020-42.458 193.787-127.372 233.302l240.869 365.715h-262.308l-199.252-315.27zM226.995 535.962h116.020c44.558 0 76.506-9.248 95.843-27.744 20.177-18.496 30.266-47.080 30.266-85.754 0-40.355-9.668-69.36-29.005-87.015s-51.704-26.483-97.103-26.483h-116.020v226.996z"></path>
</svg>
